<mxfile host="app.diagrams.net" modified="2020-11-18T07:24:53.013Z" agent="5.0 (Windows NT 10.0; WOW64) AppleWebKit/537.36 (KHTML, like Gecko) Chrome/73.0.3683.86 Safari/537.36" etag="0t8jYaUcXrqDhFIYedZ9" version="13.9.9" type="github">
  <diagram id="ywAzAEESvHo0IjY2zMxX" name="Page-1">
    <mxGraphModel dx="2272" dy="762" grid="1" gridSize="10" guides="1" tooltips="1" connect="1" arrows="1" fold="1" page="1" pageScale="1" pageWidth="850" pageHeight="1100" math="0" shadow="0">
      <root>
        <mxCell id="0" />
        <mxCell id="1" parent="0" />
        <mxCell id="LCCZw9zgMIWt1KEi6TaH-9" style="edgeStyle=orthogonalEdgeStyle;rounded=0;orthogonalLoop=1;jettySize=auto;html=1;entryX=0.5;entryY=1;entryDx=0;entryDy=0;" edge="1" parent="1" source="LCCZw9zgMIWt1KEi6TaH-1" target="LCCZw9zgMIWt1KEi6TaH-7">
          <mxGeometry relative="1" as="geometry" />
        </mxCell>
        <mxCell id="LCCZw9zgMIWt1KEi6TaH-26" style="edgeStyle=orthogonalEdgeStyle;rounded=0;orthogonalLoop=1;jettySize=auto;html=1;entryX=0.556;entryY=0.029;entryDx=0;entryDy=0;entryPerimeter=0;" edge="1" parent="1" source="LCCZw9zgMIWt1KEi6TaH-1" target="LCCZw9zgMIWt1KEi6TaH-8">
          <mxGeometry relative="1" as="geometry" />
        </mxCell>
        <mxCell id="LCCZw9zgMIWt1KEi6TaH-1" value="&lt;font style=&quot;font-size: 18px&quot;&gt;CS solace layer2&lt;/font&gt;" style="strokeWidth=2;html=1;shape=mxgraph.flowchart.direct_data;whiteSpace=wrap;" vertex="1" parent="1">
          <mxGeometry x="110" y="270" width="240" height="110" as="geometry" />
        </mxCell>
        <mxCell id="LCCZw9zgMIWt1KEi6TaH-24" style="edgeStyle=orthogonalEdgeStyle;rounded=0;orthogonalLoop=1;jettySize=auto;html=1;entryX=1;entryY=0.5;entryDx=0;entryDy=0;entryPerimeter=0;" edge="1" parent="1" source="LCCZw9zgMIWt1KEi6TaH-2" target="LCCZw9zgMIWt1KEi6TaH-1">
          <mxGeometry relative="1" as="geometry" />
        </mxCell>
        <mxCell id="LCCZw9zgMIWt1KEi6TaH-28" style="edgeStyle=orthogonalEdgeStyle;rounded=0;orthogonalLoop=1;jettySize=auto;html=1;entryX=0;entryY=0.5;entryDx=0;entryDy=0;entryPerimeter=0;" edge="1" parent="1" source="LCCZw9zgMIWt1KEi6TaH-2" target="LCCZw9zgMIWt1KEi6TaH-3">
          <mxGeometry relative="1" as="geometry" />
        </mxCell>
        <mxCell id="LCCZw9zgMIWt1KEi6TaH-2" value="&lt;font style=&quot;font-size: 18px&quot;&gt;CSAZ&lt;/font&gt;" style="strokeWidth=2;html=1;shape=mxgraph.flowchart.direct_data;whiteSpace=wrap;" vertex="1" parent="1">
          <mxGeometry x="490" y="270" width="240" height="110" as="geometry" />
        </mxCell>
        <mxCell id="LCCZw9zgMIWt1KEi6TaH-29" style="edgeStyle=orthogonalEdgeStyle;rounded=0;orthogonalLoop=1;jettySize=auto;html=1;" edge="1" parent="1" source="LCCZw9zgMIWt1KEi6TaH-3" target="LCCZw9zgMIWt1KEi6TaH-2">
          <mxGeometry relative="1" as="geometry">
            <Array as="points">
              <mxPoint x="860" y="383" />
              <mxPoint x="610" y="383" />
            </Array>
          </mxGeometry>
        </mxCell>
        <mxCell id="LCCZw9zgMIWt1KEi6TaH-3" value="&lt;font style=&quot;font-size: 18px&quot;&gt;HOME Solace&lt;/font&gt;" style="strokeWidth=2;html=1;shape=mxgraph.flowchart.direct_data;whiteSpace=wrap;" vertex="1" parent="1">
          <mxGeometry x="830" y="230" width="240" height="110" as="geometry" />
        </mxCell>
        <mxCell id="LCCZw9zgMIWt1KEi6TaH-11" style="edgeStyle=orthogonalEdgeStyle;rounded=0;orthogonalLoop=1;jettySize=auto;html=1;entryX=0.425;entryY=-0.027;entryDx=0;entryDy=0;entryPerimeter=0;" edge="1" parent="1" source="LCCZw9zgMIWt1KEi6TaH-7" target="LCCZw9zgMIWt1KEi6TaH-2">
          <mxGeometry relative="1" as="geometry" />
        </mxCell>
        <mxCell id="LCCZw9zgMIWt1KEi6TaH-7" value="&lt;font style=&quot;font-size: 16px&quot;&gt;&lt;b&gt;event_convertor&lt;/b&gt;&lt;/font&gt;" style="rounded=0;whiteSpace=wrap;html=1;" vertex="1" parent="1">
          <mxGeometry x="150" y="100" width="160" height="70" as="geometry" />
        </mxCell>
        <mxCell id="LCCZw9zgMIWt1KEi6TaH-8" value="&lt;font style=&quot;font-size: 16px&quot;&gt;&lt;b&gt;eventlog_hub&lt;/b&gt;&lt;/font&gt;" style="rounded=0;whiteSpace=wrap;html=1;" vertex="1" parent="1">
          <mxGeometry x="140" y="480" width="160" height="70" as="geometry" />
        </mxCell>
        <mxCell id="LCCZw9zgMIWt1KEi6TaH-10" value="msg1" style="text;html=1;align=center;verticalAlign=middle;resizable=0;points=[];autosize=1;" vertex="1" parent="1">
          <mxGeometry x="220" y="200" width="40" height="20" as="geometry" />
        </mxCell>
        <mxCell id="LCCZw9zgMIWt1KEi6TaH-13" value="msg1" style="text;html=1;align=center;verticalAlign=middle;resizable=0;points=[];autosize=1;" vertex="1" parent="1">
          <mxGeometry x="420" y="110" width="40" height="20" as="geometry" />
        </mxCell>
        <mxCell id="LCCZw9zgMIWt1KEi6TaH-14" value="msg1" style="text;html=1;align=center;verticalAlign=middle;resizable=0;points=[];autosize=1;" vertex="1" parent="1">
          <mxGeometry x="740" y="275" width="40" height="20" as="geometry" />
        </mxCell>
        <mxCell id="LCCZw9zgMIWt1KEi6TaH-15" value="&lt;font style=&quot;font-size: 16px&quot;&gt;&lt;b&gt;CS connector&lt;/b&gt;&lt;/font&gt;" style="whiteSpace=wrap;html=1;" vertex="1" parent="1">
          <mxGeometry x="880" y="70" width="120" height="60" as="geometry" />
        </mxCell>
        <mxCell id="LCCZw9zgMIWt1KEi6TaH-17" value="msg1" style="text;html=1;align=center;verticalAlign=middle;resizable=0;points=[];autosize=1;" vertex="1" parent="1">
          <mxGeometry x="980" y="170" width="40" height="20" as="geometry" />
        </mxCell>
        <mxCell id="LCCZw9zgMIWt1KEi6TaH-25" value="log1" style="text;html=1;align=center;verticalAlign=middle;resizable=0;points=[];autosize=1;" vertex="1" parent="1">
          <mxGeometry x="400" y="290" width="40" height="20" as="geometry" />
        </mxCell>
        <mxCell id="LCCZw9zgMIWt1KEi6TaH-27" value="log1" style="text;html=1;align=center;verticalAlign=middle;resizable=0;points=[];autosize=1;" vertex="1" parent="1">
          <mxGeometry x="230" y="420" width="40" height="20" as="geometry" />
        </mxCell>
        <mxCell id="LCCZw9zgMIWt1KEi6TaH-30" value="log1" style="text;html=1;align=center;verticalAlign=middle;resizable=0;points=[];autosize=1;" vertex="1" parent="1">
          <mxGeometry x="770" y="390" width="40" height="20" as="geometry" />
        </mxCell>
        <mxCell id="LCCZw9zgMIWt1KEi6TaH-37" style="edgeStyle=orthogonalEdgeStyle;rounded=0;orthogonalLoop=1;jettySize=auto;html=1;endArrow=classic;endFill=1;entryX=0;entryY=0.5;entryDx=0;entryDy=0;entryPerimeter=0;" edge="1" parent="1" source="LCCZw9zgMIWt1KEi6TaH-31" target="LCCZw9zgMIWt1KEi6TaH-1">
          <mxGeometry relative="1" as="geometry">
            <mxPoint x="30" y="330" as="targetPoint" />
          </mxGeometry>
        </mxCell>
        <mxCell id="LCCZw9zgMIWt1KEi6TaH-31" value="&lt;font style=&quot;font-size: 17px&quot;&gt;&lt;b&gt;shmt_selector&lt;/b&gt;&lt;/font&gt;" style="whiteSpace=wrap;html=1;" vertex="1" parent="1">
          <mxGeometry x="-70" y="105" width="120" height="60" as="geometry" />
        </mxCell>
        <mxCell id="LCCZw9zgMIWt1KEi6TaH-19" value="log1" style="text;html=1;align=center;verticalAlign=middle;resizable=0;points=[];autosize=1;" vertex="1" parent="1">
          <mxGeometry x="890" y="170" width="40" height="20" as="geometry" />
        </mxCell>
        <mxCell id="LCCZw9zgMIWt1KEi6TaH-33" value="" style="endArrow=classic;html=1;entryX=0.825;entryY=1.033;entryDx=0;entryDy=0;entryPerimeter=0;" edge="1" parent="1" target="LCCZw9zgMIWt1KEi6TaH-15">
          <mxGeometry width="50" height="50" relative="1" as="geometry">
            <mxPoint x="980" y="230" as="sourcePoint" />
            <mxPoint x="1030" y="180" as="targetPoint" />
          </mxGeometry>
        </mxCell>
        <mxCell id="LCCZw9zgMIWt1KEi6TaH-36" value="" style="endArrow=classic;html=1;endFill=1;entryX=0.433;entryY=-0.027;entryDx=0;entryDy=0;entryPerimeter=0;" edge="1" parent="1" target="LCCZw9zgMIWt1KEi6TaH-3">
          <mxGeometry width="50" height="50" relative="1" as="geometry">
            <mxPoint x="930" y="130" as="sourcePoint" />
            <mxPoint x="980" y="80" as="targetPoint" />
          </mxGeometry>
        </mxCell>
        <mxCell id="LCCZw9zgMIWt1KEi6TaH-38" value="msg1" style="text;html=1;align=center;verticalAlign=middle;resizable=0;points=[];autosize=1;" vertex="1" parent="1">
          <mxGeometry x="80" y="200" width="40" height="20" as="geometry" />
        </mxCell>
      </root>
    </mxGraphModel>
  </diagram>
</mxfile>
